<svg id="Layer_1" data-name="Layer 1" xmlns="http://www.w3.org/2000/svg" viewBox="0 0 1200.88 205.64"><defs><style>.cls-1{fill:rgb(50, 50, 50);}</style></defs><path class="cls-1" d="M44.58,44.63H0V205.3H44.58Z"/><path class="cls-1" d="M146.37.05H44.58V44.63H146.37Z"/><path class="cls-1" d="M908.15,44.63H863.57V160.72h44.58Z"/><path class="cls-1" d="M1009.94.05H908.15V44.63h101.79Z"/><path class="cls-1" d="M1009.94,160.72H908.15V205.3h101.79Z"/><path class="cls-1" d="M525.93.05H481.35V205.3h44.58Z"/><path class="cls-1" d="M482.83,44.63V.05H626.16V44.3Z"/><path class="cls-1" d="M583.14.05h44.58V124.8H583.48Z"/><path class="cls-1" d="M626.16,80.22H482.83V124.8H626.16Z"/><path class="cls-1" d="M717.21.06H672.63V205.3h44.58Z"/><path class="cls-1" d="M819,.05H774.42V205.3H819Z"/><path class="cls-1" d="M674.53.05V44.56h143V.05Z"/><path class="cls-1" d="M674.53,80.36v44.58h143V80.36Z"/><path class="cls-1" d="M337.59,44.68V.1H191.22V44.68Z"/><path class="cls-1" d="M337.44,125V80.45H191.07V125Z"/><path class="cls-1" d="M337.29,205.37V160.8H190.92v44.57Z"/><path class="cls-1" d="M440.94,174l-31.52-31.52L377.9,174l31.52,31.52Z"/><path class="cls-1" d="M1200.88,125.13h-44.57v80.51h44.57Z"/><path class="cls-1" d="M1099.09.06h-44.57V205.3h44.57Z"/><path class="cls-1" d="M1156.31,80.56H1056.16v44.57h100.15Z"/><path class="cls-1" d="M1199.25,31.52,1167.73,0l-31.52,31.52L1167.73,63Z"/></svg>
