<svg version="1.1"
    xmlns="http://www.w3.org/2000/svg" viewBox="0 0 712.4511718750002 361.7656252500001" width="712.4511718750002" height="361.7656252500001" filter="invert(93%) hue-rotate(180deg)">
    <!-- svg-source:excalidraw -->
    <g stroke-linecap="round" transform="translate(10 57.582031500000085) rotate(0 89.349609375 147.091796875)">
        <path d="M32 0 C73.35 2.02, 110.16 -1.32, 146.7 0 M32 0 C74.42 0.52, 114.94 0.68, 146.7 0 M146.7 0 C169.46 1.01, 176.8 9.78, 178.7 32 M146.7 0 C168.77 1.07, 177.05 12.58, 178.7 32 M178.7 32 C177.73 95.76, 176.99 158.28, 178.7 262.18 M178.7 32 C178.84 111.25, 178.02 191.09, 178.7 262.18 M178.7 262.18 C178.52 282.84, 167.85 293.76, 146.7 294.18 M178.7 262.18 C178.32 281.65, 167.01 292.47, 146.7 294.18 M146.7 294.18 C103.92 296.39, 63.29 295.27, 32 294.18 M146.7 294.18 C103.62 295.45, 59.63 294.92, 32 294.18 M32 294.18 C9.33 295.63, 0.24 283.79, 0 262.18 M32 294.18 C10.2 292.45, 2.03 285.1, 0 262.18 M0 262.18 C0.31 186.47, -0.07 108.81, 0 32 M0 262.18 C-0.52 190.37, -0.29 118.34, 0 32 M0 32 C1.23 8.9, 12.15 0.55, 32 0 M0 32 C-0.37 11.55, 12.21 1.76, 32 0" stroke="#343a40" stroke-width="2" fill="none"></path>
    </g>
    <g transform="translate(46.43261800000005 10.00000025000054) rotate(0 52.9169921875 16.100000000000023)">
        <text x="0" y="25.760546874999996" font-family="Open Sans, sans-serif" font-size="28px" fill="#343a40" text-anchor="start" style="white-space: pre;" direction="ltr" dominant-baseline="alphabetic">Monolith</text>
    </g>
    <g stroke-linecap="round" transform="translate(17.4843745 68.13476575000004) rotate(0 81.59179687500003 40.896484375)">
        <path d="M20.45 0 C50.35 -1.12, 79.79 0.21, 142.74 0 M142.74 0 C158.26 -1.85, 162.55 6.34, 163.18 20.45 M163.18 20.45 C163.08 31.72, 165.31 39.95, 163.18 61.34 M163.18 61.34 C164.84 73.38, 156.67 80.74, 142.74 81.79 M142.74 81.79 C101.28 82.56, 63.72 80.35, 20.45 81.79 M20.45 81.79 C6.08 83.73, -0.83 73.51, 0 61.34 M0 61.34 C-0.79 48.1, 0.29 36.12, 0 20.45 M0 20.45 C0.03 8.02, 7.02 1.09, 20.45 0" stroke="#2f9e44" stroke-width="2.5" fill="none" stroke-dasharray="8 10"></path>
    </g>
    <g transform="translate(92.51617381640631 96.53125012500004) rotate(0 6.55999755859375 12.5)">
        <text x="6.55999755859375" y="17.52" font-family="Open Sans, sans-serif" font-size="20px" fill="#2f9e44" text-anchor="middle" style="white-space: pre;" direction="ltr" dominant-baseline="alphabetic">A</text>
    </g>
    <g stroke-linecap="round" transform="translate(17.484374749999972 163.77734362500019) rotate(0 81.59179687499997 40.896484375)">
        <path d="M20.45 0 C60.94 0.64, 101.06 -0.55, 142.74 0 M142.74 0 C155.46 -0.35, 164.49 6.68, 163.18 20.45 M163.18 20.45 C163.57 36.22, 164.21 51.8, 163.18 61.34 M163.18 61.34 C161.85 76.83, 157.42 82.71, 142.74 81.79 M142.74 81.79 C99.96 84.33, 58.06 83.82, 20.45 81.79 M20.45 81.79 C7.31 79.96, 0.89 76.06, 0 61.34 M0 61.34 C-1.21 49.85, -1.22 36.46, 0 20.45 M0 20.45 C-0.78 7.23, 7.23 0.02, 20.45 0" stroke="#e03131" stroke-width="2.5" fill="none" stroke-dasharray="8 10"></path>
    </g>
    <g transform="translate(91.80617498193351 192.17382800000019) rotate(0 7.269996643066406 12.5)">
        <text x="7.269996643066406" y="17.52" font-family="Open Sans, sans-serif" font-size="20px" fill="#e03131" text-anchor="middle" style="white-space: pre;" direction="ltr" dominant-baseline="alphabetic">B</text>
    </g>
    <g stroke-linecap="round" transform="translate(17.484374749999972 259.4199213750003) rotate(0 81.59179700000001 40.896484375)">
        <path d="M20.45 0 C50.45 0.27, 78.95 -0.35, 142.74 0 M142.74 0 C155.63 -0.32, 161.93 6.89, 163.18 20.45 M163.18 20.45 C161 30.85, 162.79 44.84, 163.18 61.34 M163.18 61.34 C164.52 76.36, 156.39 81.24, 142.74 81.79 M142.74 81.79 C106.28 81.85, 72.77 82.4, 20.45 81.79 M20.45 81.79 C5.79 83.54, -0.15 74.3, 0 61.34 M0 61.34 C-0.73 45.73, -0.41 30.05, 0 20.45 M0 20.45 C0.17 8.03, 6.63 -1.39, 20.45 0" stroke="#1971c2" stroke-width="2.5" fill="none" stroke-dasharray="8 10"></path>
    </g>
    <g transform="translate(92.63617693798824 287.8164057500003) rotate(0 6.439994812011719 12.5)">
        <text x="6.439994812011719" y="17.52" font-family="Open Sans, sans-serif" font-size="20px" fill="#1971c2" text-anchor="middle" style="white-space: pre;" direction="ltr" dominant-baseline="alphabetic">C</text>
    </g>
    <g transform="translate(372.15745869482396 10) rotate(0 116.73730468750006 16.100000000000023)">
        <text x="0" y="25.760546874999996" font-family="Open Sans, sans-serif" font-size="28px" fill="#343a40" text-anchor="start" style="white-space: pre;" direction="ltr" dominant-baseline="alphabetic">Module Federation</text>
    </g>
    <g stroke-linecap="round">
        <g transform="translate(356.84456510507175 258.2930387555132) rotate(0 128.2994376208327 -59.54233290017919)">
            <path d="M-1.03 -10.22 C20.8 -26.9, 88.22 -110.58, 131.26 -110.3 C174.31 -110.02, 236.55 -25.6, 257.26 -8.55" stroke="#343a40" stroke-width="2.5" fill="none" stroke-dasharray="8 10"></path>
        </g>
    </g>
    <mask></mask>
    <g stroke-linecap="round">
        <g transform="translate(439.65234375 295.0429690000001) rotate(0 48.70703125 0.0234375)">
            <path d="M0.64 0.55 C16.91 0.53, 81.54 0.65, 97.85 0.6" stroke="#343a40" stroke-width="2.5" fill="none" stroke-dasharray="8 10"></path>
        </g>
    </g>
    <mask></mask>
    <g stroke-linecap="round" transform="translate(406.3027341249999 65.57031306249974) rotate(0 81.591796875 40.896484375)">
        <path d="M20.45 0 C53.81 -0.26, 89.46 -2.64, 142.74 0 M20.45 0 C65.92 -0.82, 110.19 0.78, 142.74 0 M142.74 0 C154.87 -0.91, 164.02 6.32, 163.18 20.45 M142.74 0 C154.83 0.52, 162.96 6.24, 163.18 20.45 M163.18 20.45 C163.11 31.55, 162.27 42.79, 163.18 61.34 M163.18 20.45 C163.47 32.9, 163.2 45.37, 163.18 61.34 M163.18 61.34 C164.44 75.94, 157.54 82.11, 142.74 81.79 M163.18 61.34 C162.54 73.32, 154.2 82.04, 142.74 81.79 M142.74 81.79 C112.59 84.4, 82.86 81.58, 20.45 81.79 M142.74 81.79 C108.78 81.3, 77.5 80.74, 20.45 81.79 M20.45 81.79 C7.83 80.08, -0.22 74.95, 0 61.34 M20.45 81.79 C5.28 80.71, 0.96 72.85, 0 61.34 M0 61.34 C-1.26 45.63, 1.36 29.27, 0 20.45 M0 61.34 C-0.33 51.82, 1 41.33, 0 20.45 M0 20.45 C-1.92 7.21, 5.9 1.37, 20.45 0 M0 20.45 C0.6 7.7, 8.57 -1.83, 20.45 0" stroke="#2f9e44" stroke-width="2" fill="none"></path>
    </g>
    <g transform="translate(481.33453344140617 93.96679743749974) rotate(0 6.55999755859375 12.5)">
        <text x="6.55999755859375" y="17.52" font-family="Open Sans, sans-serif" font-size="20px" fill="#2f9e44" text-anchor="middle" style="white-space: pre;" direction="ltr" dominant-baseline="alphabetic">A</text>
    </g>
    <g stroke-linecap="round" transform="translate(276.287109375 256.9863284375001) rotate(0 81.591796875 40.896484375)">
        <path d="M20.45 0 C64.18 -0.28, 105.59 2.66, 142.74 0 M20.45 0 C48.32 -1.61, 78.11 -1.4, 142.74 0 M142.74 0 C155.03 0.45, 162.99 6.32, 163.18 20.45 M142.74 0 C155.52 -1.6, 164.45 7.06, 163.18 20.45 M163.18 20.45 C162.95 34.51, 161.53 46.57, 163.18 61.34 M163.18 20.45 C163.73 34.77, 163.69 48.29, 163.18 61.34 M163.18 61.34 C162.63 73.54, 154.49 82.01, 142.74 81.79 M163.18 61.34 C162.1 74.49, 158.45 82.68, 142.74 81.79 M142.74 81.79 C96.3 82.22, 50.67 79.21, 20.45 81.79 M142.74 81.79 C109.75 79.94, 75.63 80.78, 20.45 81.79 M20.45 81.79 C5.48 80.85, 0.83 73.13, 0 61.34 M20.45 81.79 C8.96 80.62, -0.37 73.29, 0 61.34 M0 61.34 C-1.54 47.3, -1.61 34.24, 0 20.45 M0 61.34 C-1.28 48.93, -0.78 36.81, 0 20.45 M0 20.45 C0.52 7.58, 8.34 -1.59, 20.45 0 M0 20.45 C-1.97 5.22, 9.05 -1.93, 20.45 0" stroke="#e03131" stroke-width="2" fill="none"></path>
    </g>
    <g transform="translate(350.6089096069336 285.3828128125001) rotate(0 7.269996643066406 12.5)">
        <text x="7.269996643066406" y="17.52" font-family="Open Sans, sans-serif" font-size="20px" fill="#e03131" text-anchor="middle" style="white-space: pre;" direction="ltr" dominant-baseline="alphabetic">B</text>
    </g>
    <g stroke-linecap="round" transform="translate(539.2675778750001 256.98632843750056) rotate(0 81.59179700000004 40.896484375)">
        <path d="M20.45 0 C48.72 0.08, 81.52 -2.59, 142.74 0 M20.45 0 C50.92 0.53, 82.62 0.05, 142.74 0 M142.74 0 C155.63 -1.39, 164.29 7.03, 163.18 20.45 M142.74 0 C156.77 -0.72, 164.14 6.7, 163.18 20.45 M163.18 20.45 C163.64 34.49, 164.46 50.61, 163.18 61.34 M163.18 20.45 C163.14 33.96, 162.48 49.03, 163.18 61.34 M163.18 61.34 C162.24 74.55, 158.18 82.57, 142.74 81.79 M163.18 61.34 C164.91 77.24, 154.85 81.11, 142.74 81.79 M142.74 81.79 C97.99 82.5, 52.65 81.72, 20.45 81.79 M142.74 81.79 C115.87 81.31, 90.76 80.85, 20.45 81.79 M20.45 81.79 C8.68 80.77, -0.32 73.51, 0 61.34 M20.45 81.79 C7.24 83.12, 0.11 73.48, 0 61.34 M0 61.34 C0.45 52.74, -1.33 39.08, 0 20.45 M0 61.34 C0.45 48.66, 0.95 34.41, 0 20.45 M0 20.45 C-1.72 5.43, 8.76 -1.68, 20.45 0 M0 20.45 C0.52 5.91, 7.35 -0.19, 20.45 0" stroke="#1971c2" stroke-width="2" fill="none"></path>
    </g>
    <g transform="translate(614.4193800629885 285.38281281250056) rotate(0 6.439994812011719 12.5)">
        <text x="6.439994812011719" y="17.52" font-family="Open Sans, sans-serif" font-size="20px" fill="#1971c2" text-anchor="middle" style="white-space: pre;" direction="ltr" dominant-baseline="alphabetic">C</text>
    </g>
</svg>
