<svg width="1440" height="214" viewBox="0 0 1440 214" fill="none" xmlns="http://www.w3.org/2000/svg">
<g clip-path="url(#clip0_13038_62703)">
<mask id="mask0_13038_62703" style="mask-type:alpha" maskUnits="userSpaceOnUse" x="0" y="-206" width="1440" height="420">
<rect y="-206" width="1440" height="420" fill="url(#paint0_linear_13038_62703)"/>
</mask>
<g mask="url(#mask0_13038_62703)">
<mask id="path-2-inside-1_13038_62703" fill="white">
<path d="M588.011 177.921C605.456 187.983 625.093 193.68 645.235 194.523C657.498 194.523 664.956 191.222 664.956 183.383C664.956 172.244 648.732 173.349 626.84 167.887C599.446 161.12 583.222 149.733 583.222 126.183C583.222 95.8339 610.616 78.5881 646.577 78.5881C665.666 78.4101 684.574 82.2806 702.044 89.9423V127.504C685.408 118.309 666.86 113.078 647.853 112.222C636.021 112.222 629.011 115.704 629.011 122.256C629.011 132.306 644.572 132.306 666.049 137.108C693.675 143.875 710.562 154.354 710.562 179.241C710.562 210.597 682.489 227.925 645.45 227.925C625.763 228.002 606.285 223.907 588.31 215.911L588.094 177.954L588.011 177.921ZM833.444 220.499C823.389 225.799 812.157 228.501 800.781 228.354C793.839 228.668 786.907 227.551 780.419 225.072C773.931 222.592 768.028 218.805 763.079 213.947C755.406 205.877 750.368 193.863 750.368 170.94V118.13H726.902V81.4267H750.368V25.5469H795.113V81.4267H833.477V118.328H795.08V166.567C795.08 180.545 798.394 191.024 811.967 191.024C819.491 190.631 826.84 188.621 833.511 185.133V220.499H833.444ZM1169.29 25.5469H1214.04V142.125H1214.7L1265.35 81.0636H1315.97L1260.52 145.426L1320.18 224.905H1267.3L1214.47 151.516H1213.81V224.641H1169.06L1169.29 25.5469ZM1370.73 181.419C1370.73 159.8 1375.7 148.231 1391.11 143.215V142.554C1375.77 137.603 1370.73 126.051 1370.73 104.35V52.8102C1370.73 37.3137 1365.24 31.8511 1352.1 31.8511C1348.35 31.8922 1344.6 32.2622 1340.92 32.9568V1.74934C1347.65 0.626529 1354.47 0.0415553 1361.3 0C1396.17 0 1411.94 19.6553 1411.94 47.5952V106.099C1411.94 120.952 1416.1 126.843 1431.45 126.843H1440V158.926H1431.45C1416.1 158.926 1411.94 164.834 1411.94 179.67V238.405C1411.94 266.345 1395.72 286 1361.3 286C1354.47 285.958 1347.65 285.373 1340.92 284.251V253.027C1344.58 253.891 1348.33 254.329 1352.1 254.33C1365.03 254.33 1370.73 248.884 1370.73 233.371V181.419ZM994.194 191.684C988.062 191.684 985.427 187.096 985.427 180.33V131.646C986.054 124.218 984.911 116.747 982.092 109.842C979.273 102.937 974.857 96.7915 969.203 91.9062C955.112 82.1076 938.141 77.2699 920.978 78.159C903.466 77.9954 886.147 81.8049 870.334 89.2987V127.504C883.278 120.295 897.814 116.394 912.642 116.149C920.582 115.516 928.494 117.677 934.998 122.256C936.898 124.304 938.364 126.713 939.306 129.339C940.249 131.965 940.649 134.754 940.483 137.537V143.215C932.269 141.466 923.893 140.587 915.493 140.591C901.304 139.952 887.235 143.444 875.007 150.641C869.35 154.456 864.754 159.634 861.648 165.694C858.542 171.753 857.026 178.497 857.242 185.298C857.064 191.875 858.535 198.392 861.521 204.261C864.507 210.131 868.914 215.167 874.344 218.915C884.351 225.268 896.021 228.535 907.886 228.305C922.318 228.535 936.473 224.347 948.438 216.307L948.886 216.076C953.069 219.978 958.002 222.995 963.388 224.947C968.774 226.898 974.501 227.743 980.223 227.43C987.645 227.638 995.015 226.147 1001.77 223.073V189.935C999.403 191.068 996.817 191.665 994.194 191.684ZM940.699 189.935C934.533 193.628 927.508 195.659 920.315 195.827C909.792 195.827 901.672 190.876 901.672 181.419C901.672 170.28 913.272 166.798 924.69 166.798C930.088 166.785 935.466 167.445 940.699 168.761V189.935ZM1141.06 217.231C1126.37 224.823 1110.02 228.646 1093.48 228.354C1046.99 228.354 1012.27 196.701 1012.27 153.48C1012.27 108.277 1049.99 78.159 1095.37 78.159C1110.33 78.1667 1125.09 81.5998 1138.5 88.193V129.451C1126.52 121.291 1112.46 116.674 1097.95 116.133C1091.09 115.813 1084.28 117.373 1078.24 120.644C1072.21 123.915 1067.2 128.77 1063.75 134.682C1060.25 140.55 1058.42 147.258 1058.47 154.083C1058.52 160.908 1060.44 167.59 1064.02 173.409C1067.6 179.228 1072.71 183.962 1078.79 187.101C1084.88 190.241 1091.71 191.665 1098.55 191.222C1113.9 190.988 1128.78 185.947 1141.09 176.815V217.215L1141.06 217.231ZM510.189 27.9399H554.933V225.087H510.189V27.9399ZM243.378 217.231C228.729 224.691 212.484 228.507 196.031 228.354C149.63 228.354 114.911 196.701 114.911 153.48C114.911 108.277 152.629 78.159 198.004 78.159C212.909 78.1937 227.608 81.626 240.975 88.193V129.451C228.984 121.291 214.92 116.674 200.406 116.133C193.569 115.848 186.783 117.413 180.767 120.661C174.751 123.909 169.731 128.719 166.241 134.58C162.75 140.441 160.918 147.135 160.94 153.949C160.963 160.764 162.838 167.445 166.367 173.283C169.971 179.111 175.097 183.854 181.197 187.005C187.298 190.156 194.144 191.597 201.003 191.173C216.285 190.971 231.105 185.924 243.312 176.765V217.165L243.378 217.231ZM402.47 191.684C396.338 191.684 393.703 187.096 393.703 180.33V131.646C394.33 124.218 393.187 116.747 390.368 109.842C387.549 102.937 383.133 96.7915 377.479 91.9062C363.391 82.103 346.418 77.2648 329.255 78.159C311.743 77.9971 294.424 81.8065 278.61 89.2987V127.504C291.555 120.297 306.091 116.396 320.919 116.149C328.859 115.513 336.771 117.674 343.275 122.256C345.179 124.301 346.647 126.71 347.59 129.337C348.533 131.963 348.931 134.753 348.76 137.537V143.215C340.546 141.465 332.169 140.586 323.769 140.591C309.547 139.83 295.422 143.33 283.217 150.641C277.562 154.458 272.969 159.637 269.863 165.696C266.757 171.755 265.239 178.498 265.452 185.298C265.283 191.873 266.758 198.388 269.743 204.255C272.728 210.123 277.131 215.16 282.554 218.915C292.561 225.268 304.231 228.535 316.096 228.305C330.528 228.535 344.684 224.347 356.648 216.307L357.096 216.076C361.281 219.979 366.217 222.997 371.606 224.949C376.995 226.9 382.725 227.744 388.45 227.43C395.872 227.639 403.242 226.148 409.994 223.073V189.935C407.645 191.061 405.077 191.658 402.47 191.684ZM348.76 189.935C342.594 193.628 335.569 195.659 328.376 195.827C317.853 195.827 309.749 190.876 309.749 181.419C309.749 170.28 321.35 166.798 332.768 166.798C338.16 166.786 343.532 167.446 348.76 168.761V189.935ZM433.162 27.9399H477.906V225.087H433.162V27.9399ZM28.0566 179.67C28.0566 164.817 23.897 158.926 8.55121 158.926H0V126.843H8.55121C23.897 126.843 28.0566 120.952 28.0566 106.099V47.5952C28.0566 19.4242 44.2807 0 78.7009 0C85.5314 0.0415553 92.3477 0.626529 99.0846 1.74934V33.0063C95.4254 32.1364 91.677 31.6934 87.915 31.6861C74.9722 31.6861 69.2714 37.1486 69.2714 52.6451V104.135C69.2714 125.754 64.2998 137.323 48.8877 142.34V143C64.2335 147.951 69.2714 159.503 69.2714 181.205V232.695C69.2714 248.191 74.9722 253.654 87.915 253.654C91.677 253.647 95.4254 253.203 99.0846 252.334V283.558C92.3477 284.68 85.5314 285.265 78.7009 285.307C43.8995 285.307 28.0566 265.652 28.0566 237.712V179.67Z"/>
</mask>
<path d="M588.011 177.921C605.456 187.983 625.093 193.68 645.235 194.523C657.498 194.523 664.956 191.222 664.956 183.383C664.956 172.244 648.732 173.349 626.84 167.887C599.446 161.12 583.222 149.733 583.222 126.183C583.222 95.8339 610.616 78.5881 646.577 78.5881C665.666 78.4101 684.574 82.2806 702.044 89.9423V127.504C685.408 118.309 666.86 113.078 647.853 112.222C636.021 112.222 629.011 115.704 629.011 122.256C629.011 132.306 644.572 132.306 666.049 137.108C693.675 143.875 710.562 154.354 710.562 179.241C710.562 210.597 682.489 227.925 645.45 227.925C625.763 228.002 606.285 223.907 588.31 215.911L588.094 177.954L588.011 177.921ZM833.444 220.499C823.389 225.799 812.157 228.501 800.781 228.354C793.839 228.668 786.907 227.551 780.419 225.072C773.931 222.592 768.028 218.805 763.079 213.947C755.406 205.877 750.368 193.863 750.368 170.94V118.13H726.902V81.4267H750.368V25.5469H795.113V81.4267H833.477V118.328H795.08V166.567C795.08 180.545 798.394 191.024 811.967 191.024C819.491 190.631 826.84 188.621 833.511 185.133V220.499H833.444ZM1169.29 25.5469H1214.04V142.125H1214.7L1265.35 81.0636H1315.97L1260.52 145.426L1320.18 224.905H1267.3L1214.47 151.516H1213.81V224.641H1169.06L1169.29 25.5469ZM1370.73 181.419C1370.73 159.8 1375.7 148.231 1391.11 143.215V142.554C1375.77 137.603 1370.73 126.051 1370.73 104.35V52.8102C1370.73 37.3137 1365.24 31.8511 1352.1 31.8511C1348.35 31.8922 1344.6 32.2622 1340.92 32.9568V1.74934C1347.65 0.626529 1354.47 0.0415553 1361.3 0C1396.17 0 1411.94 19.6553 1411.94 47.5952V106.099C1411.94 120.952 1416.1 126.843 1431.45 126.843H1440V158.926H1431.45C1416.1 158.926 1411.94 164.834 1411.94 179.67V238.405C1411.94 266.345 1395.72 286 1361.3 286C1354.47 285.958 1347.65 285.373 1340.92 284.251V253.027C1344.58 253.891 1348.33 254.329 1352.1 254.33C1365.03 254.33 1370.73 248.884 1370.73 233.371V181.419ZM994.194 191.684C988.062 191.684 985.427 187.096 985.427 180.33V131.646C986.054 124.218 984.911 116.747 982.092 109.842C979.273 102.937 974.857 96.7915 969.203 91.9062C955.112 82.1076 938.141 77.2699 920.978 78.159C903.466 77.9954 886.147 81.8049 870.334 89.2987V127.504C883.278 120.295 897.814 116.394 912.642 116.149C920.582 115.516 928.494 117.677 934.998 122.256C936.898 124.304 938.364 126.713 939.306 129.339C940.249 131.965 940.649 134.754 940.483 137.537V143.215C932.269 141.466 923.893 140.587 915.493 140.591C901.304 139.952 887.235 143.444 875.007 150.641C869.35 154.456 864.754 159.634 861.648 165.694C858.542 171.753 857.026 178.497 857.242 185.298C857.064 191.875 858.535 198.392 861.521 204.261C864.507 210.131 868.914 215.167 874.344 218.915C884.351 225.268 896.021 228.535 907.886 228.305C922.318 228.535 936.473 224.347 948.438 216.307L948.886 216.076C953.069 219.978 958.002 222.995 963.388 224.947C968.774 226.898 974.501 227.743 980.223 227.43C987.645 227.638 995.015 226.147 1001.77 223.073V189.935C999.403 191.068 996.817 191.665 994.194 191.684ZM940.699 189.935C934.533 193.628 927.508 195.659 920.315 195.827C909.792 195.827 901.672 190.876 901.672 181.419C901.672 170.28 913.272 166.798 924.69 166.798C930.088 166.785 935.466 167.445 940.699 168.761V189.935ZM1141.06 217.231C1126.37 224.823 1110.02 228.646 1093.48 228.354C1046.99 228.354 1012.27 196.701 1012.27 153.48C1012.27 108.277 1049.99 78.159 1095.37 78.159C1110.33 78.1667 1125.09 81.5998 1138.5 88.193V129.451C1126.52 121.291 1112.46 116.674 1097.95 116.133C1091.09 115.813 1084.28 117.373 1078.24 120.644C1072.21 123.915 1067.2 128.77 1063.75 134.682C1060.25 140.55 1058.42 147.258 1058.47 154.083C1058.52 160.908 1060.44 167.59 1064.02 173.409C1067.6 179.228 1072.71 183.962 1078.79 187.101C1084.88 190.241 1091.71 191.665 1098.55 191.222C1113.9 190.988 1128.78 185.947 1141.09 176.815V217.215L1141.06 217.231ZM510.189 27.9399H554.933V225.087H510.189V27.9399ZM243.378 217.231C228.729 224.691 212.484 228.507 196.031 228.354C149.63 228.354 114.911 196.701 114.911 153.48C114.911 108.277 152.629 78.159 198.004 78.159C212.909 78.1937 227.608 81.626 240.975 88.193V129.451C228.984 121.291 214.92 116.674 200.406 116.133C193.569 115.848 186.783 117.413 180.767 120.661C174.751 123.909 169.731 128.719 166.241 134.58C162.75 140.441 160.918 147.135 160.94 153.949C160.963 160.764 162.838 167.445 166.367 173.283C169.971 179.111 175.097 183.854 181.197 187.005C187.298 190.156 194.144 191.597 201.003 191.173C216.285 190.971 231.105 185.924 243.312 176.765V217.165L243.378 217.231ZM402.47 191.684C396.338 191.684 393.703 187.096 393.703 180.33V131.646C394.33 124.218 393.187 116.747 390.368 109.842C387.549 102.937 383.133 96.7915 377.479 91.9062C363.391 82.103 346.418 77.2648 329.255 78.159C311.743 77.9971 294.424 81.8065 278.61 89.2987V127.504C291.555 120.297 306.091 116.396 320.919 116.149C328.859 115.513 336.771 117.674 343.275 122.256C345.179 124.301 346.647 126.71 347.59 129.337C348.533 131.963 348.931 134.753 348.76 137.537V143.215C340.546 141.465 332.169 140.586 323.769 140.591C309.547 139.83 295.422 143.33 283.217 150.641C277.562 154.458 272.969 159.637 269.863 165.696C266.757 171.755 265.239 178.498 265.452 185.298C265.283 191.873 266.758 198.388 269.743 204.255C272.728 210.123 277.131 215.16 282.554 218.915C292.561 225.268 304.231 228.535 316.096 228.305C330.528 228.535 344.684 224.347 356.648 216.307L357.096 216.076C361.281 219.979 366.217 222.997 371.606 224.949C376.995 226.9 382.725 227.744 388.45 227.43C395.872 227.639 403.242 226.148 409.994 223.073V189.935C407.645 191.061 405.077 191.658 402.47 191.684ZM348.76 189.935C342.594 193.628 335.569 195.659 328.376 195.827C317.853 195.827 309.749 190.876 309.749 181.419C309.749 170.28 321.35 166.798 332.768 166.798C338.16 166.786 343.532 167.446 348.76 168.761V189.935ZM433.162 27.9399H477.906V225.087H433.162V27.9399ZM28.0566 179.67C28.0566 164.817 23.897 158.926 8.55121 158.926H0V126.843H8.55121C23.897 126.843 28.0566 120.952 28.0566 106.099V47.5952C28.0566 19.4242 44.2807 0 78.7009 0C85.5314 0.0415553 92.3477 0.626529 99.0846 1.74934V33.0063C95.4254 32.1364 91.677 31.6934 87.915 31.6861C74.9722 31.6861 69.2714 37.1486 69.2714 52.6451V104.135C69.2714 125.754 64.2998 137.323 48.8877 142.34V143C64.2335 147.951 69.2714 159.503 69.2714 181.205V232.695C69.2714 248.191 74.9722 253.654 87.915 253.654C91.677 253.647 95.4254 253.203 99.0846 252.334V283.558C92.3477 284.68 85.5314 285.265 78.7009 285.307C43.8995 285.307 28.0566 265.652 28.0566 237.712V179.67Z" stroke="url(#paint1_linear_13038_62703)" stroke-width="2" mask="url(#path-2-inside-1_13038_62703)"/>
</g>
</g>
<defs>
<linearGradient id="paint0_linear_13038_62703" x1="720" y1="-206" x2="720" y2="214" gradientUnits="userSpaceOnUse">
<stop stop-opacity="0"/>
<stop offset="1"/>
</linearGradient>
<linearGradient id="paint1_linear_13038_62703" x1="720" y1="0" x2="720" y2="216" gradientUnits="userSpaceOnUse">
<stop stop-color="#8232FF"/>
<stop offset="1" stop-color="#8232FF" stop-opacity="0"/>
</linearGradient>
<clipPath id="clip0_13038_62703">
<rect width="1440" height="214" fill="white"/>
</clipPath>
</defs>
</svg>
