<svg width="1440" height="646" viewBox="0 0 1440 646" fill="none" xmlns="http://www.w3.org/2000/svg">
  <defs>
    <symbol id="grid-square" width="50" height="50">
      <rect width="50" height="50" stroke="grey" stroke-opacity="0.3" stroke-dasharray="2 2"/>
    </symbol>
    <linearGradient id="paint0_linear_1601_68827" x1="50" y1="50" x2="497.514" y2="547.239" gradientUnits="userSpaceOnUse">
      <stop stop-color="#8232FF"/>
      <stop offset="1" stop-color="#8232FF" stop-opacity="0"/>
    </linearGradient>
  </defs>
  <!-- Grid squares -->
  <!-- Row 1 (y=0) -->
  <use href="#grid-square" x="40" y="0"/>
  <use href="#grid-square" x="90" y="0"/>
  <use href="#grid-square" x="140" y="0"/>
  <use href="#grid-square" x="190" y="0"/>
  <use href="#grid-square" x="240" y="0"/>
  <use href="#grid-square" x="290" y="0"/>
  <use href="#grid-square" x="340" y="0"/>
  <use href="#grid-square" x="390" y="0"/>
  <use href="#grid-square" x="440" y="0"/>
  <use href="#grid-square" x="490" y="0"/>
  <use href="#grid-square" x="540" y="0"/>
  <use href="#grid-square" x="590" y="0"/>
  <use href="#grid-square" x="640" y="0"/>
  <use href="#grid-square" x="690" y="0"/>
  <use href="#grid-square" x="740" y="0"/>
  <use href="#grid-square" x="790" y="0"/>
  <use href="#grid-square" x="840" y="0"/>
  <use href="#grid-square" x="890" y="0"/>
  <use href="#grid-square" x="940" y="0"/>
  <use href="#grid-square" x="990" y="0"/>
  <use href="#grid-square" x="1040" y="0"/>
  <use href="#grid-square" x="1090" y="0"/>
  <use href="#grid-square" x="1140" y="0"/>
  <use href="#grid-square" x="1190" y="0"/>
  <use href="#grid-square" x="1240" y="0"/>
  <use href="#grid-square" x="1290" y="0"/>
  <use href="#grid-square" x="1340" y="0"/>
  <use href="#grid-square" x="1390" y="0"/>
  <!-- Row 2 (y=50) -->
  <use href="#grid-square" x="40" y="50"/>
  <use href="#grid-square" x="90" y="50"/>
  <use href="#grid-square" x="140" y="50"/>
  <use href="#grid-square" x="190" y="50"/>
  <use href="#grid-square" x="240" y="50"/>
  <use href="#grid-square" x="290" y="50"/>
  <use href="#grid-square" x="340" y="50"/>
  <use href="#grid-square" x="390" y="50"/>
  <use href="#grid-square" x="440" y="50"/>
  <use href="#grid-square" x="490" y="50"/>
  <use href="#grid-square" x="540" y="50"/>
  <use href="#grid-square" x="590" y="50"/>
  <use href="#grid-square" x="640" y="50"/>
  <use href="#grid-square" x="690" y="50"/>
  <use href="#grid-square" x="740" y="50"/>
  <use href="#grid-square" x="790" y="50"/>
  <use href="#grid-square" x="840" y="50"/>
  <use href="#grid-square" x="890" y="50"/>
  <use href="#grid-square" x="940" y="50"/>
  <use href="#grid-square" x="990" y="50"/>
  <use href="#grid-square" x="1040" y="50"/>
  <use href="#grid-square" x="1090" y="50"/>
  <use href="#grid-square" x="1140" y="50"/>
  <use href="#grid-square" x="1190" y="50"/>
  <use href="#grid-square" x="1240" y="50"/>
  <use href="#grid-square" x="1290" y="50"/>
  <use href="#grid-square" x="1340" y="50"/>
  <use href="#grid-square" x="1390" y="50"/>
  <!-- Row 3 (y=100) -->
  <use href="#grid-square" x="40" y="100"/>
  <use href="#grid-square" x="90" y="100"/>
  <use href="#grid-square" x="140" y="100"/>
  <use href="#grid-square" x="190" y="100"/>
  <use href="#grid-square" x="240" y="100"/>
  <use href="#grid-square" x="290" y="100"/>
  <use href="#grid-square" x="340" y="100"/>
  <use href="#grid-square" x="390" y="100"/>
  <use href="#grid-square" x="440" y="100"/>
  <use href="#grid-square" x="490" y="100"/>
  <use href="#grid-square" x="540" y="100"/>
  <use href="#grid-square" x="590" y="100"/>
  <use href="#grid-square" x="640" y="100"/>
  <use href="#grid-square" x="690" y="100"/>
  <use href="#grid-square" x="740" y="100"/>
  <use href="#grid-square" x="790" y="100"/>
  <use href="#grid-square" x="840" y="100"/>
  <use href="#grid-square" x="890" y="100"/>
  <use href="#grid-square" x="940" y="100"/>
  <use href="#grid-square" x="990" y="100"/>
  <use href="#grid-square" x="1040" y="100"/>
  <use href="#grid-square" x="1090" y="100"/>
  <use href="#grid-square" x="1140" y="100"/>
  <use href="#grid-square" x="1190" y="100"/>
  <use href="#grid-square" x="1240" y="100"/>
  <use href="#grid-square" x="1290" y="100"/>
  <use href="#grid-square" x="1340" y="100"/>
  <use href="#grid-square" x="1390" y="100"/>
  <!-- Row 4 (y=150) -->
  <use href="#grid-square" x="40" y="150"/>
  <use href="#grid-square" x="90" y="150"/>
  <use href="#grid-square" x="140" y="150"/>
  <use href="#grid-square" x="190" y="150"/>
  <use href="#grid-square" x="240" y="150"/>
  <use href="#grid-square" x="290" y="150"/>
  <use href="#grid-square" x="340" y="150"/>
  <use href="#grid-square" x="390" y="150"/>
  <use href="#grid-square" x="440" y="150"/>
  <use href="#grid-square" x="490" y="150"/>
  <use href="#grid-square" x="540" y="150"/>
  <use href="#grid-square" x="590" y="150"/>
  <use href="#grid-square" x="640" y="150"/>
  <use href="#grid-square" x="690" y="150"/>
  <use href="#grid-square" x="740" y="150"/>
  <use href="#grid-square" x="790" y="150"/>
  <use href="#grid-square" x="840" y="150"/>
  <use href="#grid-square" x="890" y="150"/>
  <use href="#grid-square" x="940" y="150"/>
  <use href="#grid-square" x="990" y="150"/>
  <use href="#grid-square" x="1040" y="150"/>
  <use href="#grid-square" x="1090" y="150"/>
  <use href="#grid-square" x="1140" y="150"/>
  <use href="#grid-square" x="1190" y="150"/>
  <use href="#grid-square" x="1240" y="150"/>
  <use href="#grid-square" x="1290" y="150"/>
  <use href="#grid-square" x="1340" y="150"/>
  <use href="#grid-square" x="1390" y="150"/>
  <!-- Row 5 (y=200) -->
  <use href="#grid-square" x="40" y="200"/>
  <use href="#grid-square" x="90" y="200"/>
  <use href="#grid-square" x="140" y="200"/>
  <use href="#grid-square" x="190" y="200"/>
  <use href="#grid-square" x="240" y="200"/>
  <use href="#grid-square" x="290" y="200"/>
  <use href="#grid-square" x="340" y="200"/>
  <use href="#grid-square" x="390" y="200"/>
  <use href="#grid-square" x="440" y="200"/>
  <use href="#grid-square" x="490" y="200"/>
  <use href="#grid-square" x="540" y="200"/>
  <use href="#grid-square" x="590" y="200"/>
  <use href="#grid-square" x="640" y="200"/>
  <use href="#grid-square" x="690" y="200"/>
  <use href="#grid-square" x="740" y="200"/>
  <use href="#grid-square" x="790" y="200"/>
  <use href="#grid-square" x="840" y="200"/>
  <use href="#grid-square" x="890" y="200"/>
  <use href="#grid-square" x="940" y="200"/>
  <use href="#grid-square" x="990" y="200"/>
  <use href="#grid-square" x="1040" y="200"/>
  <use href="#grid-square" x="1090" y="200"/>
  <use href="#grid-square" x="1140" y="200"/>
  <use href="#grid-square" x="1190" y="200"/>
  <use href="#grid-square" x="1240" y="200"/>
  <use href="#grid-square" x="1290" y="200"/>
  <use href="#grid-square" x="1340" y="200"/>
  <use href="#grid-square" x="1390" y="200"/>
  <!-- Row 6 (y=250) -->
  <use href="#grid-square" x="40" y="250"/>
  <use href="#grid-square" x="90" y="250"/>
  <use href="#grid-square" x="140" y="250"/>
  <use href="#grid-square" x="190" y="250"/>
  <use href="#grid-square" x="240" y="250"/>
  <use href="#grid-square" x="290" y="250"/>
  <use href="#grid-square" x="340" y="250"/>
  <use href="#grid-square" x="390" y="250"/>
  <use href="#grid-square" x="440" y="250"/>
  <use href="#grid-square" x="490" y="250"/>
  <use href="#grid-square" x="540" y="250"/>
  <use href="#grid-square" x="590" y="250"/>
  <use href="#grid-square" x="640" y="250"/>
  <use href="#grid-square" x="690" y="250"/>
  <use href="#grid-square" x="740" y="250"/>
  <use href="#grid-square" x="790" y="250"/>
  <use href="#grid-square" x="840" y="250"/>
  <use href="#grid-square" x="890" y="250"/>
  <use href="#grid-square" x="940" y="250"/>
  <use href="#grid-square" x="990" y="250"/>
  <use href="#grid-square" x="1040" y="250"/>
  <use href="#grid-square" x="1090" y="250"/>
  <use href="#grid-square" x="1140" y="250"/>
  <use href="#grid-square" x="1190" y="250"/>
  <use href="#grid-square" x="1240" y="250"/>
  <use href="#grid-square" x="1290" y="250"/>
  <use href="#grid-square" x="1340" y="250"/>
  <use href="#grid-square" x="1390" y="250"/>
  <!-- Purple outlined path overlay -->
  <g transform="translate(840,0)">
    <path fill-rule="evenodd" clip-rule="evenodd" d="M50 50H550V500H50V50ZM100 100V450H500V200H300V100H100Z" fill="url(#paint0_linear_1601_68827)" fill-opacity="0.2" stroke="#8232FF" stroke-dasharray="2 4"/>
  </g>
  <!-- Row 7 (y=300) -->
  <use href="#grid-square" x="40" y="300"/>
  <use href="#grid-square" x="90" y="300"/>
  <use href="#grid-square" x="140" y="300"/>
  <use href="#grid-square" x="190" y="300"/>
  <use href="#grid-square" x="240" y="300"/>
  <use href="#grid-square" x="290" y="300"/>
  <use href="#grid-square" x="340" y="300"/>
  <use href="#grid-square" x="390" y="300"/>
  <use href="#grid-square" x="440" y="300"/>
  <use href="#grid-square" x="490" y="300"/>
  <use href="#grid-square" x="540" y="300"/>
  <use href="#grid-square" x="590" y="300"/>
  <use href="#grid-square" x="640" y="300"/>
  <use href="#grid-square" x="690" y="300"/>
  <use href="#grid-square" x="740" y="300"/>
  <use href="#grid-square" x="790" y="300"/>
  <use href="#grid-square" x="840" y="300"/>
  <use href="#grid-square" x="890" y="300"/>
  <use href="#grid-square" x="940" y="300"/>
  <use href="#grid-square" x="990" y="300"/>
  <use href="#grid-square" x="1040" y="300"/>
  <use href="#grid-square" x="1090" y="300"/>
  <use href="#grid-square" x="1140" y="300"/>
  <use href="#grid-square" x="1190" y="300"/>
  <use href="#grid-square" x="1240" y="300"/>
  <use href="#grid-square" x="1290" y="300"/>
  <use href="#grid-square" x="1340" y="300"/>
  <use href="#grid-square" x="1390" y="300"/>
  <!-- Row 8 (y=350) -->
  <use href="#grid-square" x="40" y="350"/>
  <use href="#grid-square" x="90" y="350"/>
  <use href="#grid-square" x="140" y="350"/>
  <use href="#grid-square" x="190" y="350"/>
  <use href="#grid-square" x="240" y="350"/>
  <use href="#grid-square" x="290" y="350"/>
  <use href="#grid-square" x="340" y="350"/>
  <use href="#grid-square" x="390" y="350"/>
  <use href="#grid-square" x="440" y="350"/>
  <use href="#grid-square" x="490" y="350"/>
  <use href="#grid-square" x="540" y="350"/>
  <use href="#grid-square" x="590" y="350"/>
  <use href="#grid-square" x="640" y="350"/>
  <use href="#grid-square" x="690" y="350"/>
  <use href="#grid-square" x="740" y="350"/>
  <use href="#grid-square" x="790" y="350"/>
  <use href="#grid-square" x="840" y="350"/>
  <use href="#grid-square" x="890" y="350"/>
  <use href="#grid-square" x="940" y="350"/>
  <use href="#grid-square" x="990" y="350"/>
  <use href="#grid-square" x="1040" y="350"/>
  <use href="#grid-square" x="1090" y="350"/>
  <use href="#grid-square" x="1140" y="350"/>
  <use href="#grid-square" x="1190" y="350"/>
  <use href="#grid-square" x="1240" y="350"/>
  <use href="#grid-square" x="1290" y="350"/>
  <use href="#grid-square" x="1340" y="350"/>
  <use href="#grid-square" x="1390" y="350"/>
  <!-- Row 9 (y=400) -->
  <use href="#grid-square" x="40" y="400"/>
  <use href="#grid-square" x="90" y="400"/>
  <use href="#grid-square" x="140" y="400"/>
  <use href="#grid-square" x="190" y="400"/>
  <use href="#grid-square" x="240" y="400"/>
  <use href="#grid-square" x="290" y="400"/>
  <use href="#grid-square" x="340" y="400"/>
  <use href="#grid-square" x="390" y="400"/>
  <use href="#grid-square" x="440" y="400"/>
  <use href="#grid-square" x="490" y="400"/>
  <use href="#grid-square" x="540" y="400"/>
  <use href="#grid-square" x="590" y="400"/>
  <use href="#grid-square" x="640" y="400"/>
  <use href="#grid-square" x="690" y="400"/>
  <use href="#grid-square" x="740" y="400"/>
  <use href="#grid-square" x="790" y="400"/>
  <use href="#grid-square" x="840" y="400"/>
  <use href="#grid-square" x="890" y="400"/>
  <use href="#grid-square" x="940" y="400"/>
  <use href="#grid-square" x="990" y="400"/>
  <use href="#grid-square" x="1040" y="400"/>
  <use href="#grid-square" x="1090" y="400"/>
  <use href="#grid-square" x="1140" y="400"/>
  <use href="#grid-square" x="1190" y="400"/>
  <use href="#grid-square" x="1240" y="400"/>
  <use href="#grid-square" x="1290" y="400"/>
  <use href="#grid-square" x="1340" y="400"/>
  <use href="#grid-square" x="1390" y="400"/>
  <!-- Row 10 (y=450) -->
  <use href="#grid-square" x="40" y="450"/>
  <use href="#grid-square" x="90" y="450"/>
  <use href="#grid-square" x="140" y="450"/>
  <use href="#grid-square" x="190" y="450"/>
  <use href="#grid-square" x="240" y="450"/>
  <use href="#grid-square" x="290" y="450"/>
  <use href="#grid-square" x="340" y="450"/>
  <use href="#grid-square" x="390" y="450"/>
  <use href="#grid-square" x="440" y="450"/>
  <use href="#grid-square" x="490" y="450"/>
  <use href="#grid-square" x="540" y="450"/>
  <use href="#grid-square" x="590" y="450"/>
  <use href="#grid-square" x="640" y="450"/>
  <use href="#grid-square" x="690" y="450"/>
  <use href="#grid-square" x="740" y="450"/>
  <use href="#grid-square" x="790" y="450"/>
  <use href="#grid-square" x="840" y="450"/>
  <use href="#grid-square" x="890" y="450"/>
  <use href="#grid-square" x="940" y="450"/>
  <use href="#grid-square" x="990" y="450"/>
  <use href="#grid-square" x="1040" y="450"/>
  <use href="#grid-square" x="1090" y="450"/>
  <use href="#grid-square" x="1140" y="450"/>
  <use href="#grid-square" x="1190" y="450"/>
  <use href="#grid-square" x="1240" y="450"/>
  <use href="#grid-square" x="1290" y="450"/>
  <use href="#grid-square" x="1340" y="450"/>
  <use href="#grid-square" x="1390" y="450"/>
  <!-- Row 11 (y=500) -->
  <use href="#grid-square" x="40" y="500"/>
  <use href="#grid-square" x="90" y="500"/>
  <use href="#grid-square" x="140" y="500"/>
  <use href="#grid-square" x="190" y="500"/>
  <use href="#grid-square" x="240" y="500"/>
  <use href="#grid-square" x="290" y="500"/>
  <use href="#grid-square" x="340" y="500"/>
  <use href="#grid-square" x="390" y="500"/>
  <use href="#grid-square" x="440" y="500"/>
  <use href="#grid-square" x="490" y="500"/>
  <use href="#grid-square" x="540" y="500"/>
  <use href="#grid-square" x="590" y="500"/>
  <use href="#grid-square" x="640" y="500"/>
  <use href="#grid-square" x="690" y="500"/>
  <use href="#grid-square" x="740" y="500"/>
  <use href="#grid-square" x="790" y="500"/>
  <use href="#grid-square" x="840" y="500"/>
  <use href="#grid-square" x="890" y="500"/>
  <use href="#grid-square" x="940" y="500"/>
  <use href="#grid-square" x="990" y="500"/>
  <use href="#grid-square" x="1040" y="500"/>
  <use href="#grid-square" x="1090" y="500"/>
  <use href="#grid-square" x="1140" y="500"/>
  <use href="#grid-square" x="1190" y="500"/>
  <use href="#grid-square" x="1240" y="500"/>
  <use href="#grid-square" x="1290" y="500"/>
  <use href="#grid-square" x="1340" y="500"/>
  <use href="#grid-square" x="1390" y="500"/>
  </svg>
