<svg width="271" height="271" viewBox="0 0 271 271" fill="none" xmlns="http://www.w3.org/2000/svg">
<g clip-path="url(#clip0_14069_32881)">
<path d="M23.3535 225.133H158.434V180.107H180.947V247.647H0.839844V180.107H23.3535V225.133ZM270.999 247.647H203.459V225.133H248.486V180.107H271V225.133H270.999V247.647ZM158.434 180.107H23.3535V157.593H158.434V180.107ZM248.485 180.107H203.459V157.593H248.485V180.107ZM124.663 135.08H57.123V112.567H124.663V135.08ZM214.716 135.08H169.689V112.567H214.716V135.08ZM57.123 112.567H34.6094V45.027H57.123V112.567ZM147.178 112.567H124.664V45.027H147.178V112.567ZM237.23 112.567H214.717V45.027H237.23V112.567ZM124.663 45.027H57.123V22.5133H124.663V45.027ZM214.716 45.027H169.689V22.5133H214.716V45.027Z" fill="#8232FF"/>
</g>
<defs>
<clipPath id="clip0_14069_32881">
<rect width="270.16" height="270.16" fill="white" transform="translate(0.839844)"/>
</clipPath>
</defs>
</svg>
