<svg width="271" height="271" viewBox="0 0 271 271" fill="none" xmlns="http://www.w3.org/2000/svg">
<path d="M102.057 180.709H79.5449V203.223H57.0312V180.709H79.543V158.195H102.057V180.709ZM147.083 203.223H124.57V180.709H147.083V203.223ZM57.0312 180.709H34.5176V158.195H57.0312V180.709ZM169.598 158.195V180.709H147.084V158.195H169.598ZM34.5176 158.195H12.0039V135.683H34.5176V158.195ZM124.57 158.195H102.057V135.683H124.57V158.195ZM214.623 135.683H192.111V158.195H169.598V135.683H192.109V113.169H214.623V135.683ZM147.084 135.683H124.57V113.169H147.084V135.683ZM169.598 113.169H147.084V90.6553H169.598V113.169ZM237.137 113.169H214.623V90.6553H237.137V113.169ZM192.111 90.6553H169.598V68.1426H192.111V90.6553ZM259.65 90.6553H237.137V68.1426H259.65V90.6553Z" fill="#8232FF"/>
</svg>
