<svg width="271" height="271" viewBox="0 0 271 271" fill="none" xmlns="http://www.w3.org/2000/svg">
<path d="M90.7998 56.5117H113.313V79.0251H90.7998V56.5117Z" fill="#8232FF"/>
<path d="M68.2864 79.0251H90.7998V101.538H68.2864V79.0251Z" fill="#8232FF"/>
<path d="M45.7731 101.538H68.2864V124.052H45.7731V101.538Z" fill="#8232FF"/>
<path d="M23.2598 124.052H45.7731V146.565H23.2598V124.052Z" fill="#8232FF"/>
<path d="M45.7731 146.565H68.2864V169.078H45.7731V146.565Z" fill="#8232FF"/>
<path d="M68.2864 169.078H90.7998V191.592H68.2864V169.078Z" fill="#8232FF"/>
<path d="M90.7998 191.592H113.313V214.105H90.7998V191.592Z" fill="#8232FF"/>
<path d="M180.853 56.5117H158.34V79.0251H180.853V56.5117Z" fill="#8232FF"/>
<path d="M203.366 79.0251H180.853V101.538H203.366V79.0251Z" fill="#8232FF"/>
<path d="M225.88 101.538H203.366V124.052H225.88V101.538Z" fill="#8232FF"/>
<path d="M248.393 124.052H225.88V146.565H248.393V124.052Z" fill="#8232FF"/>
<path d="M225.88 146.565H203.366V169.078H225.88V146.565Z" fill="#8232FF"/>
<path d="M203.366 169.078H180.853V191.592H203.366V169.078Z" fill="#8232FF"/>
<path d="M180.853 191.592H158.34V214.105H180.853V191.592Z" fill="#8232FF"/>
</svg>
