<svg width="424" height="31" viewBox="0 0 424 31" fill="none" xmlns="http://www.w3.org/2000/svg">
<path d="M10.666 10.9497H13.333V13.6157H10.666V16.2827H8V13.6157H5.33301V10.9497H8V8.28271H10.666V10.9497Z" fill="#8232FF"/>
<path d="M21.333 16.2827H18.666V13.6157H21.333V16.2827Z" fill="#8232FF"/>
<path d="M18.666 10.9497H16V8.28271H18.666V10.9497Z" fill="#8232FF"/>
<path fill-rule="evenodd" clip-rule="evenodd" d="M26.666 21.6157H0V2.94971H26.666V21.6157ZM2.66602 18.9497H24V5.61572H2.66602V18.9497Z" fill="#8232FF"/>
<path d="M46.4014 24.2827H42.8081V0.225586H54.5547C56.8535 0.225586 58.6045 0.848633 59.8076 2.09473C61.0107 3.34082 61.6123 5.0918 61.6123 7.34766C61.6123 8.76562 61.2954 9.97949 60.6616 10.9893C60.0278 11.999 59.1685 12.7026 58.0835 13.1001V13.3257H59.3081C60.8872 13.3257 61.6768 14.1851 61.6768 15.9038V24.2827H58.0513V15.2109H46.4014V24.2827ZM46.4014 3.36768V12.1978H53.749C55.0059 12.1978 55.9888 11.8916 56.6978 11.2793C57.4175 10.6562 57.7773 9.81836 57.7773 8.76562V6.76758C57.7773 5.66113 57.4229 4.81787 56.7139 4.23779C56.0156 3.65771 55.0273 3.36768 53.749 3.36768H46.4014Z" fill="#201F24"/>
<path d="M63.145 15.5654C63.145 12.7617 63.8808 10.5649 65.3525 8.9751C66.8242 7.38525 68.8276 6.59033 71.3628 6.59033C73.7583 6.59033 75.6597 7.29395 77.0669 8.70117C78.4956 10.1299 79.2099 12.0581 79.2099 14.4858C79.2099 15.0552 79.167 15.6782 79.081 16.355H66.6416V17.3218C66.6416 18.6968 67.082 19.8086 67.9629 20.6572C68.8437 21.4951 69.9985 21.9141 71.4272 21.9141C72.5552 21.9141 73.5166 21.6509 74.3115 21.1245C75.1172 20.5981 75.6543 19.8892 75.9228 18.9976H79.2744C78.9306 20.6948 78.039 22.0537 76.5996 23.0742C75.1709 24.0947 73.436 24.605 71.395 24.605C68.8384 24.605 66.8242 23.7939 65.3525 22.1719C63.8808 20.5498 63.145 18.3477 63.145 15.5654ZM66.6416 13.519V13.9219H75.7778V13.3579C75.7778 12.144 75.3696 11.1665 74.5532 10.4253C73.7368 9.67334 72.6626 9.29736 71.3306 9.29736C69.9448 9.29736 68.8169 9.68945 67.9468 10.4736C67.0766 11.2471 66.6416 12.2622 66.6416 13.519Z" fill="#201F24"/>
<path d="M79.9531 19.3037C79.9531 17.6064 80.5063 16.2852 81.6128 15.3398C82.7299 14.3945 84.2768 13.9219 86.2534 13.9219H91.2968V12.665C91.2968 10.4199 90.1098 9.29736 87.7358 9.29736C86.5864 9.29736 85.6894 9.56055 85.0449 10.0869C84.4111 10.6133 84.0673 11.3438 84.0136 12.2783H80.646C80.7534 10.4844 81.4463 9.08789 82.7246 8.08887C84.0136 7.08984 85.7378 6.59033 87.8969 6.59033C88.9819 6.59033 89.9648 6.74072 90.8457 7.0415C91.7265 7.34229 92.4087 7.73438 92.8921 8.21777C94.0952 9.36719 94.6967 10.8711 94.6967 12.7295V21.8013H97.146V24.2827H94.0039C93.166 24.2827 92.559 24.1216 92.1831 23.7993C91.8071 23.4771 91.5922 22.9775 91.5385 22.3008L91.5063 21.479H91.2646C90.8886 22.4243 90.1743 23.1816 89.1215 23.751C88.0796 24.3203 86.8711 24.605 85.4961 24.605C83.788 24.605 82.4345 24.127 81.4355 23.1709C80.4472 22.2041 79.9531 20.915 79.9531 19.3037ZM83.4174 18.5786V19.4971C83.4174 20.2812 83.6806 20.8828 84.207 21.3018C84.7441 21.71 85.4907 21.9141 86.4467 21.9141C87.9399 21.9141 89.1215 21.479 89.9917 20.6089C90.8618 19.728 91.2968 18.5571 91.2968 17.0962V16.2583H86.6884C85.6572 16.2583 84.8515 16.4678 84.2714 16.8867C83.7021 17.2949 83.4174 17.8589 83.4174 18.5786Z" fill="#201F24"/>
<path d="M109.974 18.2402H113.342C113.073 20.2168 112.241 21.7744 110.844 22.9131C109.458 24.041 107.686 24.605 105.527 24.605C102.927 24.605 100.892 23.8047 99.4199 22.2041C97.9697 20.5928 97.2446 18.4014 97.2446 15.6299C97.2446 12.7939 98.0019 10.5864 99.5165 9.00732C101.063 7.396 103.099 6.59033 105.623 6.59033C107.675 6.59033 109.399 7.1543 110.796 8.28223C112.192 9.39941 113.03 10.8926 113.31 12.7617H109.91C109.652 11.6768 109.136 10.855 108.363 10.2964C107.589 9.73779 106.633 9.4585 105.495 9.4585C104.055 9.4585 102.895 9.91504 102.014 10.8281C101.144 11.7412 100.709 12.9282 100.709 14.3892V17.0962C100.709 18.5249 101.144 19.6636 102.014 20.5122C102.895 21.3501 104.055 21.769 105.495 21.769C106.698 21.769 107.691 21.4575 108.476 20.8345C109.27 20.2114 109.77 19.3467 109.974 18.2402Z" fill="#201F24"/>
<path d="M123.092 9.76465H119.499V21.5112H123.092V24.2827H118.999C117.087 24.2827 116.131 23.3481 116.131 21.479V9.76465H113.005V6.92871H116.131V1.28906H119.499V6.92871H123.092V9.76465Z" fill="#201F24"/>
<path d="M134.682 24.2827H131.088V0.225586H135.439L147.411 19.5615H147.588L147.347 12.375V0.225586H150.908V24.2827H146.557L134.617 4.94678H134.44L134.682 11.8755V24.2827Z" fill="#201F24"/>
<path d="M153.359 19.3037C153.359 17.6064 153.912 16.2852 155.018 15.3398C156.136 14.3945 157.682 13.9219 159.659 13.9219H164.702V12.665C164.702 10.4199 163.515 9.29736 161.141 9.29736C159.992 9.29736 159.095 9.56055 158.451 10.0869C157.817 10.6133 157.473 11.3438 157.419 12.2783H154.052C154.159 10.4844 154.852 9.08789 156.13 8.08887C157.419 7.08984 159.143 6.59033 161.303 6.59033C162.388 6.59033 163.37 6.74072 164.251 7.0415C165.132 7.34229 165.814 7.73438 166.298 8.21777C167.501 9.36719 168.102 10.8711 168.102 12.7295V21.8013H170.552V24.2827H167.41C166.572 24.2827 165.965 24.1216 165.589 23.7993C165.213 23.4771 164.998 22.9775 164.944 22.3008L164.912 21.479H164.67C164.294 22.4243 163.58 23.1816 162.527 23.751C161.485 24.3203 160.277 24.605 158.902 24.605C157.194 24.605 155.84 24.127 154.841 23.1709C153.853 22.2041 153.359 20.915 153.359 19.3037ZM156.823 18.5786V19.4971C156.823 20.2812 157.086 20.8828 157.613 21.3018C158.15 21.71 158.896 21.9141 159.852 21.9141C161.346 21.9141 162.527 21.479 163.397 20.6089C164.267 19.728 164.702 18.5571 164.702 17.0962V16.2583H160.094C159.063 16.2583 158.257 16.4678 157.677 16.8867C157.108 17.2949 156.823 17.8589 156.823 18.5786Z" fill="#201F24"/>
<path d="M183.235 4.31836V0.257812H186.586V4.31836H183.235ZM176 6.92871H186.586V24.2827H183.235V9.76465H176V21.5112H179.464V24.2827H175.645C174.56 24.2827 173.787 24.0303 173.325 23.5254C172.863 23.0205 172.621 22.2739 172.6 21.2856V9.76465H169.474V6.92871H172.6V1.28906H176V6.92871Z" fill="#201F24"/>
<path d="M193.436 24.2827L187.233 6.92871H190.987L193.759 15.6299L195.386 20.9795H195.579L197.159 15.6621L199.93 6.92871H203.668L197.561 24.2827H193.436Z" fill="#201F24"/>
<path d="M202.881 15.5654C202.881 12.7617 203.617 10.5649 205.088 8.9751C206.56 7.38525 208.563 6.59033 211.098 6.59033C213.494 6.59033 215.395 7.29395 216.803 8.70117C218.231 10.1299 218.946 12.0581 218.946 14.4858C218.946 15.0552 218.903 15.6782 218.817 16.355H206.377V17.3218C206.377 18.6968 206.818 19.8086 207.699 20.6572C208.579 21.4951 209.734 21.9141 211.163 21.9141C212.291 21.9141 213.252 21.6509 214.047 21.1245C214.853 20.5981 215.39 19.8892 215.658 18.9976H219.01C218.666 20.6948 217.775 22.0537 216.335 23.0742C214.907 24.0947 213.172 24.605 211.131 24.605C208.574 24.605 206.56 23.7939 205.088 22.1719C203.617 20.5498 202.881 18.3477 202.881 15.5654ZM206.377 13.519V13.9219H215.513V13.3579C215.513 12.144 215.105 11.1665 214.289 10.4253C213.472 9.67334 212.398 9.29736 211.066 9.29736C209.68 9.29736 208.553 9.68945 207.682 10.4736C206.812 11.2471 206.377 12.2622 206.377 13.519Z" fill="#201F24"/>
<path d="M224.122 0.225586H242.217V3.43213H234.95V24.2827H231.389V3.43213H224.122V0.225586Z" fill="#201F24"/>
<path d="M238.448 15.5654C238.448 12.7617 239.184 10.5649 240.656 8.9751C242.128 7.38525 244.131 6.59033 246.666 6.59033C249.062 6.59033 250.963 7.29395 252.37 8.70117C253.799 10.1299 254.513 12.0581 254.513 14.4858C254.513 15.0552 254.47 15.6782 254.385 16.355H241.945V17.3218C241.945 18.6968 242.385 19.8086 243.266 20.6572C244.147 21.4951 245.302 21.9141 246.731 21.9141C247.859 21.9141 248.82 21.6509 249.615 21.1245C250.421 20.5981 250.958 19.8892 251.226 18.9976H254.578C254.234 20.6948 253.343 22.0537 251.903 23.0742C250.474 24.0947 248.739 24.605 246.698 24.605C244.142 24.605 242.128 23.7939 240.656 22.1719C239.184 20.5498 238.448 18.3477 238.448 15.5654ZM241.945 13.519V13.9219H251.081V13.3579C251.081 12.144 250.673 11.1665 249.857 10.4253C249.04 9.67334 247.966 9.29736 246.634 9.29736C245.248 9.29736 244.12 9.68945 243.25 10.4736C242.38 11.2471 241.945 12.2622 241.945 13.519Z" fill="#201F24"/>
<path d="M255.224 18.9653H258.624C258.624 19.9106 258.968 20.6626 259.655 21.2212C260.354 21.769 261.294 22.043 262.475 22.043C263.592 22.043 264.468 21.812 265.102 21.3501C265.736 20.8774 266.052 20.2383 266.052 19.4326C266.052 18.2402 265.311 17.5151 263.829 17.2573L260.3 16.5967C257.131 16.0381 255.547 14.4751 255.547 11.9077C255.547 10.2534 256.154 8.95361 257.367 8.0083C258.581 7.06299 260.219 6.59033 262.282 6.59033C264.355 6.59033 265.999 7.0791 267.213 8.05664C268.437 9.02344 269.06 10.3179 269.082 11.9399H265.714C265.65 10.0923 264.506 9.16846 262.282 9.16846C261.24 9.16846 260.429 9.3833 259.849 9.81299C259.269 10.2427 258.979 10.8335 258.979 11.5854C258.979 12.8208 259.86 13.5674 261.621 13.8252L264.925 14.4214C268.029 14.98 269.581 16.5752 269.581 19.207C269.581 20.8721 268.937 22.188 267.648 23.1548C266.369 24.1216 264.645 24.605 262.475 24.605C260.241 24.605 258.474 24.0947 257.174 23.0742C255.874 22.043 255.224 20.6733 255.224 18.9653Z" fill="#201F24"/>
<path d="M283.006 4.31836V0.257812H286.357V4.31836H283.006ZM275.771 6.92871H286.357V24.2827H283.006V9.76465H275.771V21.5112H279.235V24.2827H275.416C274.331 24.2827 273.558 24.0303 273.096 23.5254C272.634 23.0205 272.392 22.2739 272.371 21.2856V9.76465H269.245V6.92871H272.371V1.28906H275.771V6.92871Z" fill="#201F24"/>
<path d="M293.143 24.2827H289.743V6.92871H292.708L293.175 10.1514H293.401C293.938 9.03418 294.716 8.16406 295.737 7.54102C296.758 6.90723 297.918 6.59033 299.217 6.59033C301.119 6.59033 302.591 7.22412 303.633 8.4917C304.685 9.75928 305.212 11.4941 305.212 13.6963V24.2827H301.779V14.0186C301.779 11.0537 300.496 9.57129 297.928 9.57129C296.489 9.57129 295.329 10.0869 294.448 11.1182C293.578 12.1494 293.143 13.5029 293.143 15.1787V24.2827Z" fill="#201F24"/>
<path d="M312.98 20.6895H317.363C319.071 20.6895 320.403 21.0869 321.359 21.8818C322.326 22.6768 322.809 23.7725 322.809 25.1689C322.809 26.877 322.063 28.1606 320.569 29.02C319.087 29.8901 316.971 30.3252 314.221 30.3252C311.75 30.3252 309.881 29.96 308.613 29.2295C307.346 28.5098 306.712 27.5 306.712 26.2002C306.712 24.4707 307.588 23.3267 309.339 22.7681V22.5264C308.812 22.3438 308.388 22.0322 308.066 21.5918C307.754 21.1406 307.598 20.6411 307.598 20.0933C307.598 19.4165 307.813 18.8149 308.243 18.2886C308.683 17.7515 309.258 17.3755 309.967 17.1606V16.9189C308.259 15.9414 307.405 14.416 307.405 12.3428C307.405 10.6348 308.017 9.24902 309.242 8.18555C310.466 7.12207 312.062 6.59033 314.027 6.59033C315.091 6.59033 316.095 6.75684 317.041 7.08984V6.55811C317.041 5.00049 317.927 4.22168 319.699 4.22168H322.519V6.99316H319.248V8.41113C320.344 9.43164 320.892 10.7744 320.892 12.4395C320.892 14.1689 320.29 15.5332 319.087 16.5322C317.841 17.5635 316.267 18.0791 314.366 18.0791C313.603 18.0791 312.819 17.9932 312.013 17.8213C311.627 17.8965 311.315 18.0737 311.079 18.353C310.842 18.6323 310.724 18.9492 310.724 19.3037C310.724 20.2275 311.476 20.6895 312.98 20.6895ZM310.757 11.811V12.9229C310.757 13.7393 311.063 14.3999 311.675 14.9048C312.298 15.4097 313.125 15.6621 314.156 15.6621C315.166 15.6621 315.983 15.4097 316.606 14.9048C317.239 14.3892 317.556 13.7285 317.556 12.9229V11.811C317.556 10.9731 317.239 10.3018 316.606 9.79688C315.983 9.29199 315.166 9.03955 314.156 9.03955C313.125 9.03955 312.298 9.29199 311.675 9.79688C311.063 10.3018 310.757 10.9731 310.757 11.811ZM314.463 27.8115C317.76 27.8115 319.409 26.9897 319.409 25.3462C319.409 24.0894 318.609 23.4609 317.008 23.4609H312.513C310.773 23.4609 309.902 24.1431 309.902 25.5073C309.902 26.313 310.268 26.8984 310.998 27.2637C311.729 27.6289 312.883 27.8115 314.463 27.8115Z" fill="#201F24"/>
<path d="M344.647 24.2827H330.096V0.225586H333.69V21.0439H344.647V24.2827Z" fill="#201F24"/>
<path d="M349.901 4.09277H346.534V0H349.901V4.09277ZM349.901 24.2827H346.534V6.92871H349.901V24.2827Z" fill="#201F24"/>
<path d="M356.316 24.2827H353.255V0H356.655V10.2319H356.88C357.342 9.12549 358.105 8.24463 359.169 7.58936C360.243 6.92334 361.462 6.59033 362.826 6.59033C365.179 6.59033 366.978 7.38525 368.224 8.9751C369.481 10.5649 370.109 12.7939 370.109 15.6621C370.109 18.5088 369.47 20.7109 368.192 22.2686C366.914 23.8262 365.093 24.605 362.73 24.605C361.441 24.605 360.27 24.3042 359.217 23.7026C358.164 23.1011 357.385 22.2739 356.88 21.2212H356.655L356.316 24.2827ZM356.655 14.647V16.6934C356.655 18.165 357.138 19.3843 358.105 20.3511C359.104 21.3179 360.366 21.8013 361.892 21.8013C363.385 21.8013 364.545 21.4038 365.372 20.6089C366.199 19.814 366.613 18.729 366.613 17.354V13.9863C366.613 12.5898 366.189 11.4834 365.34 10.667C364.491 9.83984 363.342 9.42627 361.892 9.42627C360.356 9.42627 359.099 9.91504 358.121 10.8926C357.144 11.8701 356.655 13.1216 356.655 14.647Z" fill="#201F24"/>
<path d="M375.155 6.92871H381.165V9.76465H375.558V24.2827H372.158V9.89355C372.158 8.94824 372.378 8.21777 372.818 7.70215C373.27 7.18652 374.048 6.92871 375.155 6.92871Z" fill="#201F24"/>
<path d="M380.039 19.3037C380.039 17.6064 380.592 16.2852 381.699 15.3398C382.816 14.3945 384.363 13.9219 386.339 13.9219H391.383V12.665C391.383 10.4199 390.196 9.29736 387.822 9.29736C386.672 9.29736 385.775 9.56055 385.131 10.0869C384.497 10.6133 384.153 11.3438 384.1 12.2783H380.732C380.839 10.4844 381.532 9.08789 382.811 8.08887C384.1 7.08984 385.824 6.59033 387.983 6.59033C389.068 6.59033 390.051 6.74072 390.932 7.0415C391.813 7.34229 392.495 7.73438 392.978 8.21777C394.181 9.36719 394.783 10.8711 394.783 12.7295V21.8013H397.232V24.2827H394.09C393.252 24.2827 392.645 24.1216 392.269 23.7993C391.893 23.4771 391.678 22.9775 391.625 22.3008L391.592 21.479H391.351C390.975 22.4243 390.26 23.1816 389.208 23.751C388.166 24.3203 386.957 24.605 385.582 24.605C383.874 24.605 382.521 24.127 381.522 23.1709C380.533 22.2041 380.039 20.915 380.039 19.3037ZM383.503 18.5786V19.4971C383.503 20.2812 383.767 20.8828 384.293 21.3018C384.83 21.71 385.577 21.9141 386.533 21.9141C388.026 21.9141 389.208 21.479 390.078 20.6089C390.948 19.728 391.383 18.5571 391.383 17.0962V16.2583H386.774C385.743 16.2583 384.938 16.4678 384.357 16.8867C383.788 17.2949 383.503 17.8589 383.503 18.5786Z" fill="#201F24"/>
<path d="M401.649 6.92871H407.659V9.76465H402.052V24.2827H398.652V9.89355C398.652 8.94824 398.872 8.21777 399.313 7.70215C399.764 7.18652 400.543 6.92871 401.649 6.92871Z" fill="#201F24"/>
<path d="M413.107 22.1396L405.953 6.92871H409.643L412.028 12.5039L414.67 18.8364H414.864L417.571 12.5039L419.972 6.92871H423.646L416.475 22.1719V26.7964C416.475 27.5698 416.335 28.2036 416.056 28.6978C415.669 29.4282 414.842 29.7935 413.575 29.7935H409.111V27.022H413.107V22.1396Z" fill="#201F24"/>
</svg>
